# xmcd CD database file
#
# Track frame offsets:
#	150
#	28485
#	55693
#	80513
#	109079
#	134065
#	163225
#	183248
#	199867
#	223874
#	246574
#	271214
#	289651
#
# Disc length: 4189 seconds
#
# Revision: 0
# Processed by: cddbd v1.5.2PL0 Copyright (c) Steve Scherf et al.
# Submitted via: CDex 1.70beta2
#
DISCID=cf105b0d
DTITLE=Fabrizio Bosso - Nuovo Cinema Paradiso
DYEAR=2007
DGENRE=Jazz
TTITLE0=The Nearness Of You
TTITLE1=Nuovo Cinema Paradiso
TTITLE2=You've Changed
TTITLE3=Senza Fine
TTITLE4=Georgia On My Mind
TTITLE5=Estate
TTITLE6=Rio De Maio
TTITLE7=Summer Samba
TTITLE8=Joyful Day
TTITLE9=Per Ricordarmi Di Te
TTITLE10=You've Changed (Instrumental)
TTITLE11=What A Wonderful World
TTITLE12=Body and Soul
EXTD=YEAR: 2007
EXTT0=
EXTT1=
EXTT2=
EXTT3=
EXTT4=
EXTT5=
EXTT6=
EXTT7=
EXTT8=
EXTT9=
EXTT10=
EXTT11=
EXTT12=
PLAYORDER=
